#!OML:ASF E:\emotionWalksFemale\Project 1\Capture day 1\Session 1\Female1.ASF
:FULLY-SPECIFIED
:DEGREES
355
root 7.87809 13.1143 18.0248 369.928 30.302 -363.421
lowerback 22.2743 2.3591 -2.22866
upperback -2.3259 2.41721 -0.751633
thorax -15.3424 1.22945 -0.435088
lowerneck -4.83492 -13.4779 -13.5972
upperneck -20.2981 -15.5545 19.4303
head -2.40099 -7.72583 7.9858
rclavicle -2.04748e-014 -2.26615e-014
rhumerus -15.5224 22.6501 -70.0643
rradius 47.2971
rwrist 7.40019
rhand 8.76252 -58.6732
rfingers 7.12502
rthumb 33.9517 -445.468
lclavicle -2.04748e-014 -2.26615e-014
lhumerus -53.4394 16.2463 44.7953
lradius 26.6581
lwrist -35.8489
lhand 25.8778 -27.7521
lfingers 7.12502
lthumb 49.9659 -6.51147
rfemur -48.4145 0.421227 34.0822
rtibia 75.0108
rfoot -34.5343 -35.2911
rtoes 16.8787
lfemur -55.551 -9.91774 -17.5823
ltibia 76.6895
lfoot -36.276 3.89906
ltoes -40.6511
356
root 7.89043 13.1603 18.0017 370.354 29.7823 -362.967
lowerback 21.9172 2.40587 -2.45176
upperback -2.44366 2.4084 -0.888329
thorax -15.2769 1.23828 -0.451642
lowerneck -5.01989 -13.4423 -13.569
upperneck -20.0596 -15.5218 19.2738
head -2.32743 -7.69531 7.9098
rclavicle -1.80894e-014 1.51076e-014
rhumerus -15.075 24.6688 -70.0918
rradius 49.5425
rwrist 6.40362
rhand 8.73568 -58.3206
rfingers 7.12502
rthumb 33.9262 -445.121
lclavicle -1.80894e-014 1.51076e-014
lhumerus -53.1751 16.0505 45.7507
lradius 26.8185
lwrist -35.8043
lhand 25.3927 -28.7675
lfingers 7.12502
lthumb 49.5215 -7.29707
rfemur -48.3913 0.56035 33.509
rtibia 74.3257
rfoot -33.9577 -34.9848
rtoes 16.9377
lfemur -55.1859 -9.66356 -18.0967
ltibia 75.8194
lfoot -35.9968 4.24086
ltoes -41.3591
357
root 7.90499 13.2291 17.9808 370.814 29.2322 -362.553
lowerback 21.4864 2.39576 -2.64563
upperback -2.53447 2.33423 -1.04399
thorax -15.1309 1.21456 -0.479785
lowerneck -5.51794 -13.3528 -13.3374
upperneck -19.7272 -15.3909 19.0526
head -2.21569 -7.61185 7.7662
rclavicle -2.80286e-014 -4.77083e-015
rhumerus -14.4752 26.7658 -70.0748
rradius 51.863
rwrist 5.48405
rhand 8.23036 -58.2879
rfingers 7.12502
rthumb 33.446 -445.193
lclavicle -2.80286e-014 -4.77083e-015
lhumerus -52.7409 15.6619 47.0336
lradius 27.0844
lwrist -35.4156
lhand 24.5583 -29.9256
lfingers 7.12502
lthumb 48.7553 -8.07302
rfemur -48.238 0.984531 32.878
rtibia 73.4443
rfoot -33.7402 -34.4966
rtoes 18.3362
lfemur -54.8293 -9.42306 -18.536
ltibia 74.7342
lfoot -35.5545 4.14249
ltoes -40.9459
358
root 7.91453 13.3191 17.9751 370.888 28.6549 -362.434
lowerback 20.9608 2.51987 -2.67853
upperback -2.62171 2.51256 -1.02537
thorax -14.9293 1.30134 -0.481297
lowerneck -5.40353 -13.3529 -13.7
upperneck -19.559 -15.4224 19.0167
head -2.15476 -7.6076 7.80371
rclavicle -2.74323e-014 5.1684e-015
rhumerus -14.326 28.5612 -69.9058
rradius 54.2641
rwrist 4.74438
rhand 7.98865 -58.4203
rfingers 7.12502
rthumb 33.2162 -445.375
lclavicle -2.74323e-014 5.1684e-015
lhumerus -52.181 14.468 49.1215
lradius 27.4764
lwrist -34.4342
lhand 23.6685 -30.2285
lfingers 7.12502
lthumb 47.9359 -7.98588
rfemur -47.6118 1.72755 32.4896
rtibia 72.3388
rfoot -33.3391 -34.3797
rtoes 19.0308
lfemur -54.1302 -9.12477 -18.6315
ltibia 73.5153
lfoot -35.2172 3.13462
ltoes -38.3729
359
root 7.9249 13.407 17.9708 370.798 28.1459 -362.401
lowerback 20.6212 2.53141 -2.71984
upperback -2.69583 2.53578 -0.979949
thorax -14.8207 1.31978 -0.401826
lowerneck -5.51851 -13.2614 -13.7372
upperneck -19.1743 -15.3377 18.8328
head -2.05464 -7.55021 7.73135
rclavicle -7.61345e-014 1.39149e-014
rhumerus -14.1321 30.3757 -69.9558
rradius 56.7053
rwrist 4.01083
rhand 7.70241 -58.6851
rfingers 7.12502
rthumb 32.944 -445.697
lclavicle -7.61345e-014 1.39149e-014
lhumerus -51.7829 13.6033 50.791
lradius 27.8396
lwrist -33.82
lhand 23.6309 -29.9514
lfingers 7.12502
lthumb 47.9013 -7.69268
rfemur -46.8132 2.35007 32.2154
rtibia 71.058
rfoot -32.5324 -34.4962
rtoes 18.7725
lfemur -53.2715 -8.90789 -18.6715
ltibia 72.222
lfoot -34.8513 2.48906
ltoes -36.6615
360
root 7.9415 13.4933 17.9627 370.723 27.7282 -362.39
lowerback 20.4509 2.40457 -2.57366
upperback -2.86184 2.40101 -1.03117
thorax -14.9046 1.24489 -0.497294
lowerneck -5.74034 -13.1298 -13.4487
upperneck -18.6109 -15.2176 18.537
head -1.92852 -7.48604 7.56391
rclavicle -9.91935e-014 4.21423e-014
rhumerus -14.1296 32.0729 -70.3915
rradius 59.143
rwrist 3.49382
rhand 6.84391 -58.928
rfingers 7.12502
rthumb 32.1271 -446.108
lclavicle -9.91935e-014 4.21423e-014
lhumerus -51.447 12.202 52.5666
lradius 28.268
lwrist -32.7569
lhand 23.6996 -30.2192
lfingers 7.12502
lthumb 47.9646 -7.98984
rfemur -45.9737 2.6623 31.9867
rtibia 69.6364
rfoot -31.8723 -34.3517
rtoes 18.7841
lfemur -52.3987 -8.79557 -18.7576
ltibia 70.8958
lfoot -34.3919 2.65145
ltoes -36.9667
